<?xml version="1.0" standalone="no"?><!DOCTYPE svg PUBLIC "-//W3C//DTD SVG 1.1//EN" "http://www.w3.org/Graphics/SVG/1.1/DTD/svg11.dtd"><svg t="1544082212988" class="icon" style="" viewBox="0 0 1024 1024" version="1.1" xmlns="http://www.w3.org/2000/svg" p-id="9137" xmlns:xlink="http://www.w3.org/1999/xlink" width="200" height="200"><defs><style type="text/css"></style></defs><path d="M768 435.2c0-12.8-12.8-25.6-25.6-25.6h-460.8c-12.8 0-25.6 12.8-25.6 25.6s12.8 25.6 25.6 25.6h460.8c12.8 0 25.6-12.8 25.6-25.6zM432.64 563.2h-145.92c-15.36 0-28.16 10.24-28.16 25.6 0 12.8 12.8 25.6 28.16 25.6h145.92c15.36 0 28.16-12.8 28.16-25.6 0-15.36-12.8-25.6-28.16-25.6zM432.64 716.8h-145.92c-15.36 0-28.16 10.24-28.16 25.6 0 12.8 12.8 25.6 28.16 25.6h145.92c15.36 0 28.16-12.8 28.16-25.6 0-15.36-12.8-25.6-28.16-25.6zM742.4 256h-460.8c-12.8 0-25.6 12.8-25.6 25.6s12.8 25.6 25.6 25.6h460.8c12.8 0 25.6-12.8 25.6-25.6s-12.8-25.6-25.6-25.6z" p-id="9138"></path><path d="M512 921.6h-358.4v-819.2h716.8v384c0 15.36 10.24 25.6 25.6 25.6s25.6-10.24 25.6-25.6v-409.6c0-12.8-12.8-25.6-25.6-25.6h-768c-12.8 0-25.6 12.8-25.6 25.6v870.4c0 12.8 12.8 25.6 25.6 25.6h384c15.36 0 25.6-10.24 25.6-25.6s-10.24-25.6-25.6-25.6z" p-id="9139"></path><path d="M768 563.2c-112.64 0-204.8 92.16-204.8 204.8s92.16 204.8 204.8 204.8 204.8-92.16 204.8-204.8-92.16-204.8-204.8-204.8z m0 358.4c-84.48 0-153.6-69.12-153.6-153.6s69.12-153.6 153.6-153.6 153.6 69.12 153.6 153.6-69.12 153.6-153.6 153.6z" p-id="9140"></path><path d="M844.8 742.4h-51.2v-51.2c0-12.8-12.8-25.6-25.6-25.6s-25.6 12.8-25.6 25.6v76.8c0 12.8 12.8 25.6 25.6 25.6h76.8c12.8 0 25.6-12.8 25.6-25.6s-12.8-25.6-25.6-25.6z" p-id="9141"></path></svg>