<?xml version="1.0" standalone="no"?><!DOCTYPE svg PUBLIC "-//W3C//DTD SVG 1.1//EN" "http://www.w3.org/Graphics/SVG/1.1/DTD/svg11.dtd"><svg t="1542612966449" class="icon" style="" viewBox="0 0 1129 1024" version="1.1" xmlns="http://www.w3.org/2000/svg" p-id="2779" xmlns:xlink="http://www.w3.org/1999/xlink" width="220.5078125" height="200"><defs><style type="text/css"></style></defs><path d="M868.95177918 215.34678468H274.11312994c-10.26749627 0-19.00277466 3.6151618-26.30943653 10.88910739-7.22487113 7.23032433-10.89456058 15.97650768-10.89456059 26.20583515v370.75858453c0 10.24023245 3.66968946 18.95370022 10.89456059 26.22764579 7.30666259 7.22487113 16.04194099 10.86184429 26.30943653 10.86184429h594.83864924c10.28385442 0 19.04094415-3.63697315 26.28217344-10.86184429 7.30120941-7.27394558 10.9218244-15.98741334 10.92182439-26.22764579V252.44172722c0-10.2293275-3.62061501-18.97551083-10.92727686-26.20583516-7.23577681-7.27394558-15.99286582-10.8891081-26.27672097-10.88910738M274.09131931 141.21142578h594.83864924c30.77522572 0 57.07375657 10.86729676 78.86287773 32.59643853 21.78912116 21.74004671 32.66187112 47.91861806 32.66187114 78.62841045v370.76403699c0 30.68798176-10.87274996 56.91562756-32.66187114 78.63386293-21.78912116 21.72914105-48.08765274 32.59643853-78.86287773 32.59643851H608.68737796v74.15716953h111.5465602c10.26204379 0 19.03003849 3.6151618 26.28217344 10.8891081 7.29030445 7.22487113 10.91091874 15.97650768 10.91091872 26.20583518 0 10.24023245-3.62061501 18.98641651-10.91637192 26.20038195-7.25213496 7.28485125-16.01467717 10.90001305-26.27672024 10.90001379H422.80370787c-10.27840195 0-19.0191328-3.6151618-26.30943728-10.90001379-7.25213496-7.21396618-10.89456058-15.96014952-10.89456056-26.20038195 0-10.23477998 3.6478781-18.97551083 10.89456056-26.20583518 7.29030445-7.27394558 16.03103531-10.8891081 26.30943728-10.8891081h111.53565452v-74.15716953H274.09131931c-30.79703633 0-57.09011544-10.86729676-78.86287845-32.59643851C173.43931968 680.11593931 162.54475911 653.88829351 162.54475911 623.20031175V252.44172722C162.54475911 221.72648236 173.43931968 195.54791102 195.22844086 173.80786431 217.00665706 152.07872254 243.29428298 141.21142578 274.09131931 141.21142578" p-id="2780"></path></svg>