<?xml version="1.0" standalone="no"?><!DOCTYPE svg PUBLIC "-//W3C//DTD SVG 1.1//EN" "http://www.w3.org/Graphics/SVG/1.1/DTD/svg11.dtd"><svg t="1542612017452" class="icon" style="" viewBox="0 0 1024 1024" version="1.1" xmlns="http://www.w3.org/2000/svg" p-id="19081" xmlns:xlink="http://www.w3.org/1999/xlink" width="200" height="200"><defs><style type="text/css"></style></defs><path d="M397.76 579.504c11.552 35.008 43.632 34.976 55.152 0 3.776-1.968 7.68-7.904 8.304-12.784 0.672-5.088 0.288-11.936-4.864-11.936-1.136-16.4-10.128-30.32-30.592-30.32-20 0-30.192 12.064-31.44 30.32-5.168 0-5.552 6.848-4.88 11.936 0.656 4.88 4.544 10.816 8.32 12.784z" p-id="19082"></path><path d="M471.888 780.32v-12.208c13.392 0 24.256-10.864 24.256-24.256v-0.832l94.336-94.336a6.496 6.496 0 0 0 0-9.216 6.464 6.464 0 0 0-9.2 0l-85.12 85.088v-80.336c0-17.488-12.752-32.592-30.592-36.336l-13.024-2.688-27.168 54.096-27.168-54.096-13.024 2.688c-17.84 3.712-30.576 18.864-30.576 36.336v99.664c0 13.392 10.848 24.256 24.24 24.256v12.224h93.056v-0.048z" p-id="19083"></path><path d="M277.68 696.4a67.52 67.52 0 0 0 67.424 67.456h0.784a38.16 38.16 0 0 1-5.68-20v-9.232a38.672 38.672 0 0 1-33.792-38.256v-183.36a38.752 38.752 0 0 1 38.688-38.704h321.968a38.752 38.752 0 0 1 38.72 38.704v183.392a38.768 38.768 0 0 1-38.72 38.72H524.32l-14.352 14.352a39.264 39.264 0 0 1-5.584 14.352h162.688a67.568 67.568 0 0 0 67.456-67.472v-183.36a67.536 67.536 0 0 0-67.456-67.456H345.136a67.52 67.52 0 0 0-67.44 67.456l-0.016 183.408zM372.144 803.984h-50.32a44.128 44.128 0 0 0-44.144 44.128v58.304h138.592v-58.304a44.096 44.096 0 0 0-44.128-44.128zM532.048 803.984h-50.32a44.112 44.112 0 0 0-44.144 44.128v58.304h138.608v-58.304a44.128 44.128 0 0 0-44.144-44.128zM691.968 803.984h-50.32a44.128 44.128 0 0 0-44.16 44.128v58.304h138.56v-58.304a44.032 44.032 0 0 0-44.08-44.128z" p-id="19084"></path><path d="M987.776 440.88a22.304 22.304 0 0 0-1.856-2l-90.864-86.656 0.032-0.528L532.688 6.624a23.088 23.088 0 0 0-32.144-0.208L36.464 438.688a21.44 21.44 0 0 0-2.096 2.224C22.528 454.896 16 473.44 16 492.992c0 41.328 29.312 74.912 65.36 74.912H103.68v428.784c0 14.656 10.992 26.496 24.48 26.496h771.648c13.536 0 24.496-11.84 24.496-26.496V567.904H940.8c36.032 0 65.376-33.6 65.376-74.912 0.016-19.584-6.512-38.096-18.4-52.112z m-80.272 75.952h-30.08c-1.856 0 18.336-1.712 16.512-1.248-1.744-0.464-20.544 1.776-22.432 1.776-13.536 0-27.504-0.64-27.504 14l2 426.816h-656l-1.328-416.816c0-14.656-10.992-26.544-24.48-26.544H117.36c-8.896 0-16.384-10-16.384-21.84 0-5.84 1.68-11.216 4.784-15.344L514 93.36 919.024 479.52c3.12 4.16 4.88 9.6 4.88 15.44-0.032 11.872-7.536 21.872-16.4 21.872z" p-id="19085"></path></svg>