<?xml version="1.0" standalone="no"?><!DOCTYPE svg PUBLIC "-//W3C//DTD SVG 1.1//EN" "http://www.w3.org/Graphics/SVG/1.1/DTD/svg11.dtd"><svg t="1544082043728" class="icon" style="" viewBox="0 0 1024 1024" version="1.1" xmlns="http://www.w3.org/2000/svg" p-id="6622" xmlns:xlink="http://www.w3.org/1999/xlink" width="200" height="200"><defs><style type="text/css"></style></defs><path d="M837.818182 849.454545c0 32.093091-26.112 58.181818-58.181818 58.181819h-512A58.251636 58.251636 0 0 1 209.454545 849.454545v-558.545454c0-32.093091 26.112-58.181818 58.181819-58.181818h66.141091l-4.654546 46.545454H290.909091a34.909091 34.909091 0 1 0 0 69.818182h465.454545a34.909091 34.909091 0 1 0 0-69.818182h-38.213818l-4.654545-46.545454H779.636364c32.069818 0 58.181818 26.088727 58.181818 58.181818v558.545454zM414.557091 126.836364A11.566545 11.566545 0 0 1 426.123636 116.363636h195.025455c6.004364 0 10.984727 4.491636 11.566545 10.472728L636.346182 162.909091h-0.023273l11.636364 116.363636H399.313455l11.636363-116.363636h-0.023273l3.630546-36.072727zM779.636364 162.909091h-73.146182l-4.282182-43.031273A81.221818 81.221818 0 0 0 621.149091 46.545455h-195.025455a81.221818 81.221818 0 0 0-81.058909 73.332363L340.782545 162.909091H267.636364A128.139636 128.139636 0 0 0 139.636364 290.909091v558.545454c0 70.562909 57.413818 128 128 128h512c70.586182 0 128-57.437091 128-128v-558.545454C907.636364 220.346182 850.222545 162.909091 779.636364 162.909091z m-60.509091 286.254545a34.955636 34.955636 0 0 0-48.872728 6.981819l-187.392 249.879272-111.406545-92.858182a34.932364 34.932364 0 0 0-44.706909 53.66691l120.832 100.70109a58.577455 58.577455 0 0 0 43.985454 13.032728 58.414545 58.414545 0 0 0 39.796364-22.830546L726.109091 498.036364a34.909091 34.909091 0 0 0-6.981818-48.896" fill="#797979" p-id="6623"></path></svg>